<?xml version="1.0" encoding="UTF-8"?>
<!DOCTYPE svg PUBLIC "-//W3C//DTD SVG 1.1//EN" "http://www.w3.org/Graphics/SVG/1.1/DTD/svg11.dtd">
<svg xmlns="http://www.w3.org/2000/svg" version="1.1" width="363px" height="363px" style="shape-rendering:geometricPrecision; text-rendering:geometricPrecision; image-rendering:optimizeQuality; fill-rule:evenodd; clip-rule:evenodd" xmlns:xlink="http://www.w3.org/1999/xlink">
<g><path style="opacity:0.997" fill="#68359a" d="M 161.5,-0.5 C 174.5,-0.5 187.5,-0.5 200.5,-0.5C 262.479,8.33071 309.312,39.664 341,93.5C 352.128,115.046 359.295,137.712 362.5,161.5C 362.5,174.5 362.5,187.5 362.5,200.5C 353.669,262.479 322.336,309.312 268.5,341C 246.954,352.128 224.288,359.295 200.5,362.5C 187.5,362.5 174.5,362.5 161.5,362.5C 99.5211,353.669 52.6878,322.336 21,268.5C 9.87167,246.954 2.705,224.288 -0.5,200.5C -0.5,187.5 -0.5,174.5 -0.5,161.5C 8.33071,99.5211 39.664,52.6878 93.5,21C 115.046,9.87167 137.712,2.705 161.5,-0.5 Z"/></g>
<g><path style="opacity:1" fill="#fdfcfd" d="M 142.5,82.5 C 183.809,79.7286 213.642,96.7286 232,133.5C 242.952,163.004 239.452,190.671 221.5,216.5C 224.984,220.485 228.651,224.318 232.5,228C 238.255,227.771 243.588,229.105 248.5,232C 261.333,244.833 274.167,257.667 287,270.5C 294.982,287.869 289.649,298.536 271,302.5C 266.692,302.176 262.859,300.676 259.5,298C 246.667,285.167 233.833,272.333 221,259.5C 218.105,254.588 216.771,249.255 217,243.5C 213.318,239.651 209.485,235.984 205.5,232.5C 163.105,259.196 124.605,254.529 90,218.5C 66.9087,186.065 65.5753,152.731 86,118.5C 100.059,99.0514 118.892,87.0514 142.5,82.5 Z"/></g>
<g><path style="opacity:1" fill="#68359a" d="M 146.5,98.5 C 186.734,98.2496 211.567,117.583 221,156.5C 223.101,189.149 209.601,212.649 180.5,227C 145.641,238.825 117.808,229.658 97,199.5C 81.6076,169.258 85.441,141.758 108.5,117C 119.527,107.319 132.193,101.153 146.5,98.5 Z"/></g>
</svg>
